Coordinates
version=1
nRows=30
nColumns=38
inDegrees=no

Units are S.I. units (second, meters, Newtons, ...)
If the header above contains a line with 'inDegrees', this indicates whether rotational values are in degrees (yes) or radians (no).

endheader
time	pelvis_tilt	pelvis_list	pelvis_rotation	pelvis_tx	pelvis_ty	pelvis_tz	hip_flexion_r	hip_adduction_r	hip_rotation_r	knee_angle_r	ankle_angle_r	subtalar_angle_r	mtp_angle_r	hip_flexion_l	hip_adduction_l	hip_rotation_l	knee_angle_l	ankle_angle_l	subtalar_angle_l	mtp_angle_l	lumbar_extension	lumbar_bending	lumbar_rotation	arm_flex_r	arm_add_r	arm_rot_r	elbow_flex_r	pro_sup_r	wrist_flex_r	wrist_dev_r	arm_flex_l	arm_add_l	arm_rot_l	elbow_flex_l	pro_sup_l	wrist_flex_l	wrist_dev_l
0	-2.22897	1.45033	-2.47675	0.605554	-0.646229	0.911456	-0.133981	-0.243653	-0.231341	0.903826	-0.213711	0	0	0.322662	0.0443607	-0.273475	0.431355	0.132318	0	0	-0.209111	-0.18985	-0.0546937	-0.200394	-0.202317	0.0194931	0.504286	0.394233	0	0	-0.192139	-0.364725	0.324531	0.70803	1.14129	0	0
0.01	-2.20258	1.44843	-2.4947	0.602503	-0.634471	0.912427	-0.095652	-0.256763	-0.227403	0.966228	-0.279404	0	0	0.309462	0.0567783	-0.26065	0.42732	0.132259	0	0	-0.207613	-0.191471	-0.0599132	-0.20411	-0.20078	0.0154879	0.505491	0.393048	0	0	-0.190548	-0.370305	0.333421	0.719863	1.14513	0	0
0.02	-2.23057	1.44841	-2.46343	0.600509	-0.623024	0.914048	-0.0522186	-0.254968	-0.200997	1.04099	-0.239103	0	0	0.293262	0.0589711	-0.254411	0.427856	0.136532	0	0	-0.211038	-0.18824	-0.0615795	-0.204342	-0.199024	0.0100481	0.506649	0.395529	0	0	-0.188506	-0.376621	0.343025	0.732431	1.15202	0	0
0.03	-2.22026	1.44088	-2.46385	0.596146	-0.610381	0.915392	-0.0373213	-0.290359	-0.214093	1.06232	-0.35189	0	0	0.27263	0.0774983	-0.241619	0.422658	0.138069	0	0	-0.213926	-0.190635	-0.0720501	-0.20815	-0.199804	0.00780761	0.510119	0.397839	0	0	-0.190871	-0.380648	0.346603	0.744994	1.15669	0	0
0.04	-2.26379	1.43472	-2.41547	0.594034	-0.598713	0.917716	-0.015685	-0.296128	-0.206029	1.10217	-0.350199	0	0	0.24606	0.0836935	-0.232696	0.414789	0.139329	0	0	-0.223819	-0.189933	-0.0780442	-0.207236	-0.198479	0.00326553	0.511864	0.406534	0	0	-0.188746	-0.385582	0.349251	0.753989	1.17104	0	0
0.05	-2.31112	1.43064	-2.3637	0.592164	-0.587241	0.920062	0.00739122	-0.297501	-0.198749	1.14219	-0.314549	0	0	0.221494	0.0855596	-0.226225	0.409979	0.143196	0	0	-0.232819	-0.186694	-0.0842978	-0.20469	-0.197639	0.00112651	0.511233	0.412338	0	0	-0.185743	-0.38889	0.349835	0.758051	1.18434	0	0
0.06	-2.36428	1.42754	-2.30615	0.590361	-0.575974	0.922523	0.030931	-0.295551	-0.192358	1.17802	-0.267353	0	0	0.196499	0.0851085	-0.220764	0.404168	0.149547	0	0	-0.241845	-0.181376	-0.0908413	-0.201361	-0.197587	0.00170822	0.509742	0.417445	0	0	-0.181296	-0.391011	0.349758	0.759795	1.19888	0	0
0.07	-2.41951	1.42507	-2.24676	0.588622	-0.564908	0.925051	0.0545386	-0.290929	-0.185735	1.20699	-0.224377	0	0	0.171071	0.0834102	-0.215531	0.396093	0.155476	0	0	-0.250498	-0.174687	-0.0969981	-0.198049	-0.198032	0.00381912	0.507922	0.420555	0	0	-0.175085	-0.392505	0.351142	0.758365	1.21344	0	0
0.08	-2.47299	1.42376	-2.1895	0.586928	-0.554029	0.927524	0.0793958	-0.284325	-0.178862	1.2283	-0.194671	0	0	0.146533	0.0806553	-0.21009	0.386376	0.159591	0	0	-0.257895	-0.166794	-0.102814	-0.194782	-0.198885	0.00734924	0.505931	0.421129	0	0	-0.167757	-0.393349	0.353181	0.754962	1.22468	0	0
0.09	-2.52287	1.42352	-2.13596	0.585276	-0.543295	0.929854	0.104697	-0.27665	-0.173224	1.24285	-0.171216	0	0	0.123103	0.0773886	-0.204335	0.375236	0.16229	0	0	-0.263608	-0.158261	-0.108506	-0.192147	-0.199939	0.0119984	0.50415	0.419747	0	0	-0.159831	-0.394014	0.356337	0.750268	1.23403	0	0
0.1	-2.57234	1.42351	-2.08365	0.583767	-0.53259	0.932099	0.129418	-0.268176	-0.168479	1.25191	-0.147315	0	0	0.099256	0.0737691	-0.199283	0.361568	0.163286	0	0	-0.268331	-0.14959	-0.113373	-0.19024	-0.200954	0.017252	0.502322	0.417761	0	0	-0.151085	-0.394714	0.36126	0.744683	1.24354	0	0
0.11	-2.62077	1.42381	-2.03275	0.582303	-0.521935	0.934243	0.153737	-0.259264	-0.164933	1.25599	-0.120298	0	0	0.075326	0.0701031	-0.194242	0.345826	0.162881	0	0	-0.27207	-0.140681	-0.117776	-0.189187	-0.201947	0.0229567	0.500631	0.415087	0	0	-0.141613	-0.395199	0.36764	0.738332	1.2497	0	0
0.12	-2.66995	1.4233	-1.98116	0.580885	-0.511423	0.936371	0.176003	-0.250598	-0.16309	1.25505	-0.0893486	0	0	0.0500103	0.0668488	-0.187586	0.327654	0.161314	0	0	-0.276395	-0.131769	-0.122199	-0.188612	-0.202696	0.0284616	0.499768	0.412642	0	0	-0.131227	-0.395716	0.374717	0.732383	1.25391	0	0
0.13	-2.71915	1.42283	-1.9295	0.579496	-0.501019	0.938417	0.197652	-0.242032	-0.162696	1.24941	-0.0579604	0	0	0.0245778	0.0634452	-0.179771	0.308035	0.159211	0	0	-0.280328	-0.122363	-0.126672	-0.188338	-0.203316	0.0331513	0.499653	0.410775	0	0	-0.120724	-0.395928	0.381364	0.726209	1.25969	0	0
0.14	-2.77073	1.42233	-1.87546	0.57818	-0.490758	0.940337	0.218089	-0.232709	-0.16344	1.239	-0.0276308	0	0	-0.000507431	0.0590902	-0.1719	0.28842	0.157477	0	0	-0.284301	-0.112212	-0.131253	-0.188342	-0.203915	0.037459	0.501044	0.411081	0	0	-0.110072	-0.395889	0.38708	0.720345	1.26822	0	0
0.15	-2.80722	1.42098	-1.83497	0.577892	-0.480648	0.942146	0.236667	-0.211537	-0.169443	1.22488	-0.00931589	0	0	-0.0255027	0.0529004	-0.166702	0.268404	0.158288	0	0	-0.288737	-0.10577	-0.137515	-0.188781	-0.202195	0.0401322	0.503668	0.41258	0	0	-0.0996857	-0.397599	0.390088	0.715691	1.27618	0	0
0.16	-2.85778	1.42033	-1.77995	0.576612	-0.470461	0.943719	0.253729	-0.202966	-0.174046	1.2043	0.0151136	0	0	-0.0495287	0.0473289	-0.157437	0.249583	0.158359	0	0	-0.292349	-0.0949523	-0.144576	-0.188867	-0.201849	0.0412086	0.506586	0.415817	0	0	-0.0907613	-0.397837	0.391774	0.713251	1.28045	0	0
0.17	-2.90453	1.41929	-1.72844	0.575355	-0.460369	0.945103	0.269321	-0.195482	-0.179795	1.17927	0.0360634	0	0	-0.0728921	0.0417128	-0.148264	0.231792	0.159017	0	0	-0.296026	-0.0844781	-0.151917	-0.189048	-0.201281	0.0409897	0.510866	0.422276	0	0	-0.0816345	-0.398462	0.393038	0.71222	1.28526	0	0
0.18	-2.94403	1.41832	-1.68384	0.574103	-0.450448	0.946244	0.284156	-0.189831	-0.186832	1.15094	0.0544906	0	0	-0.0949689	0.0368018	-0.138664	0.214916	0.159911	0	0	-0.299505	-0.0747792	-0.159765	-0.188817	-0.200282	0.0383954	0.516141	0.430978	0	0	-0.0726189	-0.39948	0.393066	0.712741	1.29198	0	0
0.19	-2.98079	1.41726	-1.64218	0.572914	-0.440567	0.947157	0.297693	-0.184751	-0.194417	1.11894	0.07129	0	0	-0.116736	0.0319231	-0.129214	0.198059	0.161073	0	0	-0.302627	-0.0655	-0.167146	-0.188421	-0.19884	0.032977	0.522108	0.441447	0	0	-0.0638347	-0.400629	0.392138	0.713506	1.30099	0	0
0.2	-3.01671	1.41562	-1.60163	0.571821	-0.430593	0.947874	0.308872	-0.179692	-0.202542	1.08302	0.0846214	0	0	-0.139466	0.0267666	-0.120003	0.18021	0.162211	0	0	-0.305888	-0.0563875	-0.174315	-0.187756	-0.197481	0.0273322	0.528623	0.453509	0	0	-0.0558034	-0.401874	0.389762	0.714899	1.31102	0	0
0.21	-3.04937	1.41307	-1.56413	0.57079	-0.420498	0.948447	0.316953	-0.175231	-0.212075	1.04339	0.0921477	0	0	-0.163425	0.0216551	-0.110717	0.161686	0.162801	0	0	-0.309735	-0.0476923	-0.181941	-0.186607	-0.196215	0.0223308	0.535525	0.465238	0	0	-0.0482964	-0.403451	0.386668	0.717476	1.32087	0	0
0.22	-3.07055	1.41123	-1.53855	0.569767	-0.410466	0.948681	0.324865	-0.173771	-0.223839	1.00182	0.0941239	0	0	-0.18573	0.0183607	-0.101578	0.14461	0.163573	0	0	-0.312873	-0.0407384	-0.189935	-0.184522	-0.195597	0.019712	0.542588	0.474378	0	0	-0.0413605	-0.405508	0.383411	0.721344	1.32934	0	0
0.23	-3.08209	1.40996	-1.52322	0.568775	-0.400432	0.948594	0.332257	-0.1748	-0.237761	0.958904	0.0949755	0	0	-0.206964	0.0166864	-0.0923855	0.128539	0.164778	0	0	-0.315272	-0.0355223	-0.197408	-0.181987	-0.195278	0.0177416	0.549484	0.48152	0	0	-0.0343568	-0.40774	0.380185	0.725524	1.33746	0	0
0.24	-3.10506	1.40878	-1.5011	0.567226	-0.390229	0.948294	0.33734	-0.188225	-0.256818	0.913084	0.104917	0	0	-0.227856	0.0169692	-0.0805725	0.114642	0.165009	0	0	-0.316897	-0.0277803	-0.202108	-0.177434	-0.19737	0.0176033	0.556108	0.486311	0	0	-0.0287783	-0.4086	0.377177	0.730513	1.34446	0	0
0.25	-3.1093	1.40841	-1.49492	0.566576	-0.38007	0.947612	0.343057	-0.189746	-0.273264	0.866397	0.107608	0	0	-0.246636	0.0160569	-0.0741153	0.102522	0.168207	0	0	-0.317895	-0.024574	-0.207948	-0.173571	-0.197626	0.0192197	0.562133	0.489614	0	0	-0.0214899	-0.411415	0.375385	0.733898	1.35105	0	0
0.26	-3.11153	1.40858	-1.49145	0.566104	-0.3699	0.946637	0.348159	-0.190644	-0.290297	0.817965	0.10931	0	0	-0.264198	0.0153077	-0.0690535	0.0920397	0.172478	0	0	-0.318385	-0.0220854	-0.212659	-0.169563	-0.19821	0.0224867	0.568781	0.493126	0	0	-0.0131945	-0.414284	0.374877	0.736676	1.35625	0	0
0.27	-3.11626	1.40794	-1.48639	0.565679	-0.359997	0.945612	0.351248	-0.189865	-0.307606	0.766558	0.109507	0	0	-0.281611	0.0142203	-0.0652179	0.0829385	0.177491	0	0	-0.320667	-0.0190107	-0.215578	-0.164826	-0.199612	0.0264304	0.576375	0.494877	0	0	-0.00257014	-0.416579	0.376098	0.737488	1.36116	0	0
0.28	-3.09777	1.40926	-1.50048	0.56607	-0.350096	0.944019	0.358243	-0.179453	-0.31693	0.716684	0.103304	0	0	-0.295644	0.0126011	-0.0661163	0.0755533	0.186215	0	0	-0.321127	-0.0212515	-0.220322	-0.162069	-0.198698	0.0304098	0.583624	0.495588	0	0	0.00910262	-0.421533	0.379833	0.737681	1.36453	0	0
0.29	-3.08855	1.41246	-1.51191	0.566145	-0.340177	0.942158	0.365595	-0.180098	-0.332179	0.665394	0.107748	0	0	-0.306516	0.0139569	-0.066985	0.0722535	0.195196	0	0	-0.319588	-0.0218479	-0.220545	-0.157035	-0.199611	0.0337666	0.590215	0.494961	0	0	0.0203159	-0.424628	0.383849	0.737933	1.36333	0	0
